# xmcd
#
# Track frame offsets:
#	182
#	18810
#	34502
#	55270
#	83350
#	101090
#	121085
#	161057
#	176502
#	199415
#	221147
#	240002
#	259887
#	275557
#	310037
#	337275
#
# Disc length: 4706 seconds
#
# Revision: 2
# Processed by: cddbd v1.5.1PL0 Copyright (c) Steve Scherf et al.
# Submitted via: audiograbber 1.81.03
#
DISCID=d7126010
DTITLE=Various Artist - Chitlin Circuit Soul!
DYEAR=2001
DGENRE=Blues
TTITLE0=Bobby Bland - Members Only
TTITLE1=Johnnie Taylor - Cheaper  To Keep Her
TTITLE2=Clarence Carter - Strokin'
TTITLE3=Ronnie Lovejoy - Still Wasn't Me
TTITLE4=Shirley Brown - Woman to Woman
TTITLE5=Tyrone Davis - Turning Point
TTITLE6=Bobby Rush - Sue
TTITLE7=Wilson Meadows - That's Still My Love
TTITLE8=Little Milton - Walking The Back Streets and Crying
TTITLE9=Millie Jackson - If You're Not Back in Love by Monday
TTITLE10=Sterling Harrison and the New Breed - There's A Rat Loose In My House
TTITLE11=Z.Z. Hill - Love Is So Good When You're Stealing It
TTITLE12=Latimore - Let's Straighten It Out
TTITLE13=Carl Sims - I'm Trapped
TTITLE14=Marvin Sease - Stuck In The Middle
TTITLE15=Betty Wright - Tonight Is The Night Pt.1
EXTD=\n
EXTT0=
EXTT1=
EXTT2=
EXTT3=
EXTT4=
EXTT5=
EXTT6=
EXTT7=
EXTT8=
EXTT9=
EXTT10=
EXTT11=
EXTT12=
EXTT13=
EXTT14=
EXTT15=
PLAYORDER=
